<?xml version="1.0" encoding="utf-8"?>
<svg xmlns="http://www.w3.org/2000/svg" viewBox="0 0 500 500" xmlns:bx="https://boxy-svg.com" width="500px" height="500px"><defs><g></g><export><file format="svg"></file></export></defs><path fill="#ed3237" d="M 254.115 456.251 L 222.371 407.061 L 240.292 349.322 L 203.001 383.487 L 200.729 442.644 L 176.876 381.689 L 211.657 318.595 L 161.704 363.956 L 160.822 410.116 L 111.885 386.712 L 152.482 335.375 L 142.4 324.087 L 128.269 347.346 L 124.082 333.73 L 120.458 345.674 L 115.22 326.53 L 115.22 336.875 L 102.358 316.643 L 106.959 290.74 L 97.36 280 L 96.355 261.584 L 83.214 240.229 L 132.098 202.491 L 132.098 195.434 L 154.083 177.299 L 131.425 151.036 L 167.196 151.062 L 167.196 153.787 L 137.402 153.768 L 157.983 177.621 L 134.823 196.72 L 134.823 203.839 L 86.827 240.895 L 99.051 260.74 L 100.032 278.896 L 109.881 289.914 L 105.234 316.068 L 112.489 327.484 L 112.489 306.191 L 120.594 335.806 L 124.055 324.366 L 129.096 340.731 L 141.985 319.511 L 156.05 335.267 L 116.144 385.725 L 158.172 405.821 L 158.991 362.723 L 159.43 362.33 L 221.985 305.526 L 179.887 381.887 L 198.508 429.448 L 200.314 382.246 L 245.911 340.48 L 225.354 406.647 L 252.371 448.513 L 273.252 289.339 L 282.571 405.461 L 326.37 335.985 L 318.505 399.296 L 357.117 363.264 L 349.332 276.981 L 387.547 310.182 L 343.697 221.993 L 394.604 264.534 L 351.813 201.332 L 381.219 191.643 L 320.445 156.564 L 321.812 154.2 L 387.871 192.326 L 356.108 202.797 L 407.762 279.094 L 351.949 232.446 L 396.086 321.218 L 352.658 283.498 L 359.956 364.352 L 314.866 406.432 L 322.155 347.804 L 280.505 413.864 L 272.596 315.35 L 254.115 456.251 Z M 254.115 456.251" fill-opacity="1" fill-rule="nonzero" style=""></path><path d="M 222.488 211.487 L 243.511 220.465 L 225.552 198.357 L 248.985 199.013 L 214.391 177.55 L 228.618 176.238 L 208.037 169.011 L 219.262 147.073 L 203.156 154.937 L 194.293 150.505 L 194.321 150.659 L 198.41 169.45 L 184.928 159.709 L 140.396 197.259 L 140.396 206.013 L 95.724 241.479 L 126.482 240.804 L 108.373 255.599 L 102.682 260.245 L 118.158 280.702 L 132.108 285.582 L 145.473 290.246 L 168.39 276.99 L 161.921 267.967 L 140.699 264.469 L 160.33 263.409 L 156.815 256.948 L 133.608 252.643 L 156.815 251.771 L 148.492 239.286 L 152.213 222.435 L 154.621 237.759 L 161.623 245.425 L 207.164 238.856 L 172.571 254.835 L 171.915 283.074 L 199.281 270.385 L 193.808 302.344 L 221.598 267.336 L 221.616 267.32 L 221.616 267.292 L 222.93 228.564 L 253.253 248.05 L 222.488 211.487 Z M 178.737 214.688 L 163.88 214.688 L 172.274 208.566 L 154.272 213.349 L 168.776 198.607 L 179.698 200.172 L 194.293 202.275 L 178.737 214.688 Z M 178.737 214.688" fill-opacity="1" fill-rule="nonzero" style="fill: rgb(237, 50, 56);"></path><path d="M 151.585 299.928 L 148.52 306.129 L 123.974 308.294 L 113.422 291.99 L 117.44 284.171 C 117.449 284.162 117.449 284.162 117.449 284.162 L 146.714 297.68 L 151.585 299.928 Z M 151.585 299.928" fill-opacity="1" fill-rule="nonzero" style="fill: rgb(237, 50, 56);"></path><path fill="#ed3237" d="M 276.039 175.617 L 267.266 156.195 L 260.443 152.59 L 245.865 179.752 L 227.477 162.891 L 260.443 132.637 L 274.932 148.087 L 276.039 175.617 Z M 276.039 175.617" fill-opacity="1" fill-rule="nonzero" style=""></path><path fill="#ed3237" d="M 302.622 226.397 C 302.622 227.163 302.479 227.899 302.183 228.601 C 301.895 229.309 301.472 229.931 300.933 230.47 C 300.396 231.008 299.774 231.422 299.072 231.709 C 298.373 232.007 297.634 232.148 296.87 232.148 C 296.106 232.148 295.379 232.007 294.668 231.709 C 293.969 231.422 293.348 231.008 292.809 230.47 C 292.268 229.931 291.857 229.309 291.559 228.601 C 291.272 227.899 291.118 227.163 291.118 226.397 C 291.118 225.633 291.272 224.906 291.559 224.204 C 291.857 223.495 292.268 222.874 292.809 222.335 C 293.348 221.795 293.969 221.383 294.668 221.087 C 295.379 220.799 296.106 220.653 296.87 220.653 C 297.634 220.653 298.373 220.799 299.072 221.087 C 299.774 221.383 300.396 221.795 300.933 222.335 C 301.472 222.874 301.895 223.495 302.183 224.204 C 302.479 224.906 302.622 225.633 302.622 226.397 Z M 302.622 226.397" fill-opacity="1" fill-rule="nonzero" style=""></path><path fill="#ed3237" d="M 253.442 198.186 C 253.442 198.949 253.299 199.686 253.002 200.388 C 252.715 201.087 252.3 201.709 251.762 202.247 C 251.221 202.788 250.603 203.209 249.892 203.496 C 249.191 203.793 248.453 203.938 247.69 203.938 C 246.925 203.938 246.199 203.793 245.497 203.496 C 244.788 203.209 244.166 202.788 243.629 202.247 C 243.088 201.709 242.675 201.087 242.379 200.388 C 242.091 199.686 241.947 198.949 241.947 198.186 C 241.947 197.422 242.091 196.692 242.379 195.984 C 242.675 195.282 243.088 194.664 243.629 194.122 C 244.166 193.585 244.788 193.17 245.497 192.874 C 246.199 192.586 246.925 192.433 247.69 192.433 C 248.453 192.433 249.191 192.586 249.892 192.874 C 250.603 193.17 251.221 193.585 251.762 194.122 C 252.3 194.664 252.715 195.282 253.002 195.984 C 253.299 196.692 253.442 197.422 253.442 198.186 Z M 253.442 198.186" fill-opacity="1" fill-rule="nonzero" style=""></path><path fill="#ed3237" d="M 172.688 152.429 C 172.688 153.193 172.534 153.92 172.247 154.631 C 171.949 155.333 171.538 155.951 170.997 156.492 C 170.458 157.03 169.837 157.445 169.138 157.741 C 168.427 158.029 167.7 158.181 166.936 158.181 C 166.172 158.181 165.433 158.029 164.734 157.741 C 164.032 157.445 163.41 157.03 162.873 156.492 C 162.334 155.951 161.911 155.333 161.623 154.631 C 161.327 153.92 161.184 153.193 161.184 152.429 C 161.184 151.665 161.327 150.929 161.623 150.227 C 161.911 149.525 162.334 148.906 162.873 148.366 C 163.41 147.827 164.032 147.403 164.734 147.116 C 165.433 146.822 166.172 146.677 166.936 146.677 C 167.7 146.677 168.427 146.822 169.138 147.116 C 169.837 147.403 170.458 147.827 170.997 148.366 C 171.538 148.906 171.949 149.525 172.247 150.227 C 172.534 150.929 172.688 151.665 172.688 152.429 Z M 172.688 152.429" fill-opacity="1" fill-rule="nonzero" style=""></path><path fill="#ed3237" d="M 227.467 266.43 C 227.467 267.194 227.324 267.921 227.036 268.632 C 226.74 269.334 226.325 269.952 225.788 270.493 C 225.247 271.032 224.628 271.445 223.917 271.743 C 223.218 272.03 222.479 272.182 221.724 272.182 C 220.96 272.182 220.224 272.03 219.522 271.743 C 218.814 271.445 218.192 271.032 217.654 270.493 C 217.113 269.952 216.701 269.334 216.404 268.632 C 216.116 267.921 215.972 267.194 215.972 266.43 C 215.972 265.666 216.116 264.929 216.404 264.228 C 216.701 263.526 217.113 262.897 217.654 262.357 C 218.192 261.828 218.814 261.405 219.522 261.117 C 220.224 260.821 220.96 260.678 221.724 260.678 C 222.479 260.678 223.218 260.821 223.917 261.117 C 224.628 261.405 225.247 261.828 225.788 262.357 C 226.325 262.897 226.74 263.526 227.036 264.228 C 227.324 264.929 227.467 265.666 227.467 266.43 Z M 227.467 266.43" fill-opacity="1" fill-rule="nonzero" style=""></path><path fill="#ed3237" d="M 359.973 201.332 C 359.973 202.095 359.832 202.823 359.534 203.534 C 359.247 204.235 358.823 204.854 358.284 205.395 C 357.744 205.933 357.125 206.347 356.423 206.644 C 355.715 206.932 354.986 207.084 354.221 207.084 C 353.458 207.084 352.73 206.932 352.019 206.644 C 351.318 206.347 350.699 205.933 350.158 205.395 C 349.62 204.854 349.199 204.235 348.912 203.534 C 348.624 202.823 348.469 202.095 348.469 201.332 C 348.469 200.567 348.624 199.831 348.912 199.13 C 349.199 198.428 349.62 197.809 350.158 197.269 C 350.699 196.73 351.318 196.306 352.019 196.019 C 352.73 195.721 353.458 195.58 354.221 195.58 C 354.986 195.58 355.715 195.721 356.423 196.019 C 357.125 196.306 357.744 196.73 358.284 197.269 C 358.823 197.809 359.247 198.428 359.534 199.13 C 359.832 199.831 359.973 200.567 359.973 201.332 Z M 359.973 201.332" fill-opacity="1" fill-rule="nonzero" style=""></path><path fill="#ed3237" d="M 391.87 191.283 C 391.87 192.335 391.673 193.349 391.27 194.32 C 390.865 195.291 390.299 196.155 389.553 196.89 C 388.806 197.636 387.952 198.211 386.972 198.617 C 386.003 199.013 384.996 199.219 383.944 199.219 C 382.892 199.219 381.878 199.013 380.907 198.617 C 379.936 198.211 379.074 197.636 378.337 196.89 C 377.59 196.155 377.015 195.291 376.612 194.32 C 376.216 193.349 376.008 192.335 376.008 191.283 C 376.008 190.231 376.216 189.224 376.612 188.253 C 377.015 187.275 377.59 186.419 378.337 185.674 C 379.074 184.937 379.936 184.362 380.907 183.958 C 381.878 183.553 382.892 183.355 383.944 183.355 C 384.996 183.355 386.003 183.553 386.972 183.958 C 387.952 184.362 388.806 184.937 389.553 185.674 C 390.299 186.419 390.865 187.275 391.27 188.253 C 391.673 189.224 391.87 190.231 391.87 191.283 Z M 391.87 191.283" fill-opacity="1" fill-rule="nonzero" style=""></path><path fill="#ed3237" d="M 188.541 381.714 C 188.541 382.766 188.334 383.783 187.932 384.754 C 187.536 385.725 186.961 386.588 186.214 387.324 C 185.467 388.07 184.613 388.645 183.642 389.049 C 182.674 389.445 181.657 389.652 180.605 389.652 C 179.554 389.652 178.548 389.445 177.568 389.049 C 176.597 388.645 175.743 388.07 174.998 387.324 C 174.251 386.588 173.684 385.725 173.28 384.754 C 172.877 383.783 172.679 382.766 172.679 381.714 C 172.679 380.663 172.877 379.658 173.28 378.687 C 173.684 377.706 174.251 376.852 174.998 376.107 C 175.743 375.361 176.597 374.796 177.568 374.39 C 178.548 373.986 179.554 373.788 180.605 373.788 C 181.657 373.788 182.674 373.986 183.642 374.39 C 184.613 374.796 185.467 375.361 186.214 376.107 C 186.961 376.852 187.536 377.706 187.932 378.687 C 188.334 379.658 188.541 380.663 188.541 381.714 Z M 188.541 381.714" fill-opacity="1" fill-rule="nonzero" style=""></path><path fill="#ed3237" d="M 123.13 386.703 C 123.13 387.754 122.932 388.771 122.526 389.742 C 122.122 390.713 121.555 391.566 120.811 392.312 C 120.064 393.057 119.209 393.632 118.241 394.028 C 117.26 394.434 116.253 394.631 115.201 394.631 C 114.149 394.631 113.135 394.434 112.164 394.028 C 111.193 393.632 110.339 393.057 109.594 392.312 C 108.848 391.566 108.273 390.713 107.877 389.742 C 107.472 388.771 107.266 387.754 107.266 386.703 C 107.266 385.651 107.472 384.637 107.877 383.666 C 108.273 382.695 108.848 381.841 109.594 381.096 C 110.339 380.35 111.193 379.775 112.164 379.379 C 113.135 378.974 114.149 378.767 115.201 378.767 C 116.253 378.767 117.26 378.974 118.241 379.379 C 119.209 379.775 120.064 380.35 120.811 381.096 C 121.555 381.841 122.122 382.695 122.526 383.666 C 122.932 384.637 123.13 385.651 123.13 386.703 Z M 123.13 386.703" fill-opacity="1" fill-rule="nonzero" style=""></path><path fill="#ed3237" d="M 351.544 224.78 C 351.544 225.544 351.401 226.272 351.113 226.982 C 350.816 227.684 350.402 228.304 349.864 228.843 C 349.323 229.381 348.704 229.805 348.003 230.092 C 347.292 230.389 346.564 230.532 345.801 230.532 C 345.037 230.532 344.3 230.389 343.599 230.092 C 342.897 229.805 342.268 229.381 341.728 228.843 C 341.189 228.304 340.776 227.684 340.488 226.982 C 340.191 226.272 340.049 225.544 340.049 224.78 C 340.049 224.015 340.191 223.289 340.488 222.578 C 340.776 221.879 341.189 221.257 341.728 220.718 C 342.268 220.178 342.897 219.756 343.599 219.469 C 344.3 219.181 345.037 219.028 345.801 219.028 C 346.564 219.028 347.292 219.181 348.003 219.469 C 348.704 219.756 349.323 220.178 349.864 220.718 C 350.402 221.257 350.816 221.879 351.113 222.578 C 351.401 223.289 351.544 224.015 351.544 224.78 Z M 351.544 224.78" fill-opacity="1" fill-rule="nonzero" style=""></path><path fill="#ed3237" d="M 230.758 406.792 C 230.758 407.555 230.612 408.283 230.318 408.984 C 230.03 409.695 229.615 410.314 229.076 410.853 C 228.537 411.394 227.909 411.807 227.207 412.102 C 226.506 412.389 225.769 412.535 225.005 412.535 C 224.242 412.535 223.514 412.389 222.803 412.102 C 222.102 411.807 221.482 411.394 220.942 410.853 C 220.403 410.314 219.989 409.695 219.692 408.984 C 219.405 408.283 219.262 407.555 219.262 406.792 C 219.262 406.028 219.405 405.289 219.692 404.59 C 219.989 403.879 220.403 403.259 220.942 402.719 C 221.482 402.18 222.102 401.767 222.803 401.479 C 223.514 401.182 224.242 401.04 225.005 401.04 C 225.769 401.04 226.506 401.182 227.207 401.479 C 227.909 401.767 228.537 402.18 229.076 402.719 C 229.615 403.259 230.03 403.879 230.318 404.59 C 230.612 405.289 230.758 406.028 230.758 406.792 Z M 230.758 406.792" fill-opacity="1" fill-rule="nonzero" style=""></path><path fill="#ed3237" d="M 160.024 335.32 C 160.024 336.083 159.87 336.822 159.583 337.522 C 159.285 338.233 158.874 338.852 158.333 339.392 C 157.794 339.931 157.173 340.344 156.474 340.632 C 155.763 340.929 155.036 341.072 154.272 341.072 C 153.508 341.072 152.769 340.929 152.07 340.632 C 151.368 340.344 150.741 339.931 150.199 339.392 C 149.67 338.852 149.247 338.233 148.959 337.522 C 148.663 336.822 148.52 336.083 148.52 335.32 C 148.52 334.565 148.663 333.828 148.959 333.127 C 149.247 332.418 149.67 331.797 150.199 331.259 C 150.741 330.717 151.368 330.306 152.07 330.009 C 152.769 329.722 153.508 329.577 154.272 329.577 C 155.036 329.577 155.763 329.722 156.474 330.009 C 157.173 330.306 157.794 330.717 158.333 331.259 C 158.874 331.797 159.285 332.418 159.583 333.127 C 159.87 333.828 160.024 334.565 160.024 335.32 Z M 160.024 335.32" fill-opacity="1" fill-rule="nonzero" style=""></path><path fill="#ed3237" d="M 225.005 308.879 C 225.005 309.642 224.86 310.371 224.573 311.081 C 224.278 311.782 223.864 312.401 223.323 312.942 C 222.785 313.48 222.166 313.894 221.455 314.191 C 220.753 314.479 220.017 314.631 219.262 314.631 C 218.499 314.631 217.762 314.479 217.06 314.191 C 216.349 313.894 215.73 313.48 215.19 312.942 C 214.651 312.401 214.238 311.782 213.94 311.081 C 213.653 310.371 213.51 309.642 213.51 308.879 C 213.51 308.114 213.653 307.378 213.94 306.677 C 214.238 305.975 214.651 305.346 215.19 304.808 C 215.73 304.267 216.349 303.855 217.06 303.568 C 217.762 303.271 218.499 303.127 219.262 303.127 C 220.017 303.127 220.753 303.271 221.455 303.568 C 222.166 303.855 222.785 304.267 223.323 304.808 C 223.864 305.346 224.278 305.975 224.573 306.677 C 224.86 307.378 225.005 308.114 225.005 308.879 Z M 225.005 308.879" fill-opacity="1" fill-rule="nonzero" style=""></path><path fill="#ed3237" d="M 411.069 277.591 C 411.069 278.357 410.926 279.094 410.629 279.796 C 410.343 280.504 409.928 281.125 409.389 281.664 C 408.849 282.203 408.23 282.616 407.519 282.904 C 406.817 283.2 406.081 283.343 405.317 283.343 C 404.562 283.343 403.825 283.2 403.124 282.904 C 402.413 282.616 401.794 282.203 401.256 281.664 C 400.716 281.125 400.301 280.504 400.007 279.796 C 399.719 279.094 399.574 278.357 399.574 277.591 C 399.574 276.837 399.719 276.1 400.007 275.398 C 400.301 274.69 400.716 274.069 401.256 273.53 C 401.794 272.989 402.413 272.578 403.124 272.28 C 403.825 271.994 404.562 271.848 405.317 271.848 C 406.081 271.848 406.817 271.994 407.519 272.28 C 408.23 272.578 408.849 272.989 409.389 273.53 C 409.928 274.069 410.343 274.69 410.629 275.398 C 410.926 276.1 411.069 276.837 411.069 277.591 Z M 411.069 277.591" fill-opacity="1" fill-rule="nonzero" style=""></path><path fill="#ed3237" d="M 356.711 280.316 C 356.711 281.07 356.559 281.809 356.272 282.508 C 355.975 283.219 355.561 283.838 355.022 284.379 C 354.481 284.918 353.863 285.331 353.161 285.629 C 352.453 285.916 351.723 286.058 350.959 286.058 C 350.195 286.058 349.459 285.916 348.757 285.629 C 348.055 285.331 347.428 284.918 346.898 284.379 C 346.357 283.838 345.937 283.219 345.648 282.508 C 345.352 281.809 345.207 281.07 345.207 280.316 C 345.207 279.552 345.352 278.815 345.648 278.114 C 345.937 277.403 346.357 276.783 346.898 276.245 C 347.428 275.704 348.055 275.291 348.757 275.003 C 349.459 274.709 350.195 274.563 350.959 274.563 C 351.723 274.563 352.453 274.709 353.161 275.003 C 353.863 275.291 354.481 275.704 355.022 276.245 C 355.561 276.783 355.975 277.403 356.272 278.114 C 356.559 278.815 356.711 279.552 356.711 280.316 Z M 356.711 280.316" fill-opacity="1" fill-rule="nonzero" style=""></path><path fill="#ed3237" d="M 366.357 363.344 C 366.357 364.359 366.159 365.34 365.763 366.283 C 365.377 367.228 364.819 368.063 364.099 368.781 C 363.382 369.501 362.544 370.058 361.6 370.454 C 360.657 370.84 359.677 371.038 358.653 371.038 C 357.637 371.038 356.649 370.84 355.715 370.454 C 354.769 370.058 353.934 369.501 353.216 368.781 C 352.487 368.063 351.94 367.228 351.544 366.283 C 351.157 365.34 350.959 364.359 350.959 363.344 C 350.959 362.32 351.157 361.34 351.544 360.397 C 351.94 359.454 352.487 358.617 353.216 357.899 C 353.934 357.178 354.769 356.621 355.715 356.226 C 356.649 355.839 357.637 355.641 358.653 355.641 C 359.677 355.641 360.657 355.839 361.6 356.226 C 362.544 356.621 363.382 357.178 364.099 357.899 C 364.819 358.617 365.377 359.454 365.763 360.397 C 366.159 361.34 366.357 362.32 366.357 363.344 Z M 366.357 363.344" fill-opacity="1" fill-rule="nonzero" style=""></path><path fill="#ed3237" d="M 280.863 296.224 C 280.863 297.248 280.665 298.227 280.279 299.171 C 279.885 300.116 279.326 300.951 278.608 301.669 C 277.888 302.39 277.053 302.946 276.11 303.333 C 275.166 303.729 274.186 303.926 273.162 303.926 C 272.145 303.926 271.158 303.729 270.222 303.333 C 269.278 302.946 268.443 302.39 267.724 301.669 C 266.996 300.951 266.448 300.116 266.052 299.171 C 265.666 298.227 265.468 297.248 265.468 296.224 C 265.468 295.209 265.666 294.22 266.052 293.285 C 266.448 292.342 266.996 291.505 267.724 290.787 C 268.443 290.057 269.278 289.509 270.222 289.114 C 271.158 288.728 272.145 288.53 273.162 288.53 C 274.186 288.53 275.166 288.728 276.11 289.114 C 277.053 289.509 277.888 290.057 278.608 290.787 C 279.326 291.505 279.885 292.342 280.279 293.285 C 280.665 294.22 280.863 295.209 280.863 296.224 Z M 280.863 296.224" fill-opacity="1" fill-rule="nonzero" style=""></path><path fill="#ed3237" d="M 399.574 315.988 C 399.574 317.012 399.376 317.993 398.98 318.935 C 398.593 319.878 398.037 320.706 397.319 321.434 C 396.599 322.154 395.763 322.711 394.821 323.097 C 393.874 323.493 392.897 323.691 391.87 323.691 C 390.856 323.691 389.867 323.493 388.932 323.097 C 387.99 322.711 387.154 322.154 386.434 321.434 C 385.707 320.706 385.156 319.878 384.764 318.935 C 384.377 317.993 384.179 317.012 384.179 315.988 C 384.179 314.973 384.377 313.984 384.764 313.04 C 385.156 312.104 385.707 311.269 386.434 310.551 C 387.154 309.822 387.99 309.265 388.932 308.879 C 389.867 308.483 390.856 308.294 391.87 308.294 C 392.897 308.294 393.874 308.483 394.821 308.879 C 395.763 309.265 396.599 309.822 397.319 310.551 C 398.037 311.269 398.593 312.104 398.98 313.04 C 399.376 313.984 399.574 314.973 399.574 315.988 Z M 399.574 315.988" fill-opacity="1" fill-rule="nonzero" style=""></path><path fill="#ed3237" d="M 288.143 409.398 C 288.143 410.163 288.001 410.898 287.703 411.6 C 287.416 412.299 287.002 412.921 286.463 413.46 C 285.925 414 285.294 414.422 284.592 414.709 C 283.893 415.006 283.155 415.15 282.39 415.15 C 281.627 415.15 280.901 415.006 280.19 414.709 C 279.489 414.422 278.868 414 278.33 413.46 C 277.79 412.921 277.377 412.299 277.081 411.6 C 276.793 410.898 276.648 410.163 276.648 409.398 C 276.648 408.634 276.793 407.906 277.081 407.196 C 277.377 406.494 277.79 405.874 278.33 405.335 C 278.868 404.797 279.489 404.382 280.19 404.086 C 280.901 403.798 281.627 403.646 282.39 403.646 C 283.155 403.646 283.893 403.798 284.592 404.086 C 285.294 404.382 285.925 404.797 286.463 405.335 C 287.002 405.874 287.416 406.494 287.703 407.196 C 288.001 407.906 288.143 408.634 288.143 409.398 Z M 288.143 409.398" fill-opacity="1" fill-rule="nonzero" style=""></path><path fill="#ed3237" d="M 259.14 454.247 C 259.14 455.01 258.987 455.738 258.699 456.449 C 258.405 457.15 257.99 457.77 257.452 458.308 C 256.911 458.849 256.292 459.262 255.59 459.557 C 254.879 459.844 254.153 459.999 253.388 459.999 C 252.624 459.999 251.889 459.844 251.187 459.557 C 250.484 459.262 249.866 458.849 249.325 458.308 C 248.787 457.77 248.363 457.15 248.076 456.449 C 247.779 455.738 247.636 455.01 247.636 454.247 C 247.636 453.483 247.779 452.744 248.076 452.045 C 248.363 451.343 248.787 450.725 249.325 450.184 C 249.866 449.645 250.484 449.222 251.187 448.934 C 251.889 448.637 252.624 448.495 253.388 448.495 C 254.153 448.495 254.879 448.637 255.59 448.934 C 256.292 449.222 256.911 449.645 257.452 450.184 C 257.99 450.725 258.405 451.343 258.699 452.045 C 258.987 452.744 259.14 453.483 259.14 454.247 Z M 259.14 454.247" fill-opacity="1" fill-rule="nonzero" style=""></path><path fill="#ed3237" d="M 205.788 437.6 C 205.788 438.364 205.646 439.103 205.358 439.802 C 205.062 440.504 204.647 441.134 204.108 441.673 C 203.571 442.211 202.949 442.625 202.238 442.913 C 201.538 443.21 200.801 443.353 200.045 443.353 C 199.281 443.353 198.545 443.21 197.843 442.913 C 197.134 442.625 196.514 442.211 195.975 441.673 C 195.435 441.134 195.023 440.504 194.734 439.802 C 194.438 439.103 194.293 438.364 194.293 437.6 C 194.293 436.837 194.438 436.109 194.734 435.398 C 195.023 434.699 195.435 434.077 195.975 433.539 C 196.514 432.998 197.134 432.586 197.843 432.29 C 198.545 432.002 199.281 431.857 200.045 431.857 C 200.801 431.857 201.538 432.002 202.238 432.29 C 202.949 432.586 203.571 432.998 204.108 433.539 C 204.647 434.077 205.062 434.699 205.358 435.398 C 205.646 436.109 205.788 436.837 205.788 437.6 Z M 205.788 437.6" fill-opacity="1" fill-rule="nonzero" style=""></path><path fill="#ed3237" d="M 250.72 342.529 C 250.72 343.292 250.575 344.022 250.278 344.731 C 249.99 345.432 249.57 346.051 249.029 346.592 C 248.49 347.13 247.869 347.554 247.17 347.841 C 246.468 348.129 245.731 348.281 244.968 348.281 C 244.204 348.281 243.474 348.129 242.766 347.841 C 242.064 347.554 241.442 347.13 240.904 346.592 C 240.366 346.051 239.951 345.432 239.655 344.731 C 239.367 344.022 239.215 343.292 239.215 342.529 C 239.215 341.764 239.367 341.038 239.655 340.327 C 239.951 339.625 240.366 339.006 240.904 338.468 C 241.442 337.927 242.064 337.505 242.766 337.218 C 243.474 336.921 244.204 336.777 244.968 336.777 C 245.731 336.777 246.468 336.921 247.17 337.218 C 247.869 337.505 248.49 337.927 249.029 338.468 C 249.57 339.006 249.99 339.625 250.278 340.327 C 250.575 341.038 250.72 341.764 250.72 342.529 Z M 250.72 342.529" fill-opacity="1" fill-rule="nonzero" style=""></path><path fill="#ed3237" d="M 256.849 248.768 C 256.849 249.245 256.759 249.703 256.58 250.154 C 256.391 250.593 256.129 250.979 255.797 251.323 C 255.454 251.654 255.068 251.914 254.628 252.103 C 254.18 252.282 253.72 252.373 253.244 252.373 C 252.767 252.373 252.309 252.282 251.87 252.103 C 251.419 251.914 251.033 251.654 250.692 251.323 C 250.358 250.979 250.098 250.593 249.919 250.154 C 249.73 249.703 249.64 249.245 249.64 248.768 C 249.64 248.292 249.73 247.834 249.919 247.393 C 250.098 246.943 250.358 246.557 250.692 246.217 C 251.033 245.883 251.419 245.623 251.87 245.444 C 252.309 245.255 252.767 245.165 253.244 245.165 C 253.72 245.165 254.18 245.255 254.628 245.444 C 255.068 245.623 255.454 245.883 255.797 246.217 C 256.129 246.557 256.391 246.943 256.58 247.393 C 256.759 247.834 256.849 248.292 256.849 248.768 Z M 256.849 248.768" fill-opacity="1" fill-rule="nonzero" style=""></path><path fill="#ed3237" d="M 278.689 187.013 C 278.689 187.489 278.599 187.95 278.42 188.389 C 278.241 188.838 277.978 189.224 277.637 189.567 C 277.297 189.899 276.91 190.159 276.468 190.35 C 276.029 190.529 275.571 190.618 275.086 190.618 C 274.61 190.618 274.149 190.529 273.71 190.35 C 273.271 190.159 272.875 189.899 272.541 189.567 C 272.2 189.224 271.938 188.838 271.759 188.389 C 271.579 187.95 271.48 187.489 271.48 187.013 C 271.48 186.537 271.579 186.079 271.759 185.64 C 271.938 185.189 272.2 184.802 272.541 184.462 C 272.875 184.128 273.271 183.868 273.71 183.679 C 274.149 183.5 274.61 183.41 275.086 183.41 C 275.571 183.41 276.029 183.5 276.468 183.679 C 276.91 183.868 277.297 184.128 277.637 184.462 C 277.978 184.802 278.241 185.189 278.42 185.64 C 278.599 186.079 278.689 186.537 278.689 187.013 Z M 278.689 187.013" fill-opacity="1" fill-rule="nonzero" style=""></path><path fill="#ed3237" d="M 289.986 157.247 C 289.986 157.723 289.896 158.181 289.717 158.63 C 289.528 159.071 289.278 159.458 288.934 159.799 C 288.594 160.132 288.207 160.392 287.766 160.58 C 287.326 160.76 286.859 160.85 286.383 160.85 C 285.907 160.85 285.446 160.76 285.007 160.58 C 284.568 160.392 284.172 160.132 283.838 159.799 C 283.497 159.458 283.237 159.071 283.056 158.63 C 282.867 158.181 282.777 157.723 282.777 157.247 C 282.777 156.77 282.867 156.313 283.056 155.87 C 283.237 155.431 283.497 155.035 283.838 154.703 C 284.172 154.362 284.568 154.102 285.007 153.92 C 285.446 153.732 285.907 153.641 286.383 153.641 C 286.859 153.641 287.326 153.732 287.766 153.92 C 288.207 154.102 288.594 154.362 288.934 154.703 C 289.278 155.035 289.528 155.431 289.717 155.87 C 289.896 156.313 289.986 156.77 289.986 157.247 Z M 289.986 157.247" fill-opacity="1" fill-rule="nonzero" style=""></path><path fill="#ed3237" d="M 328.85 338.925 C 328.85 339.401 328.761 339.859 328.58 340.299 C 328.392 340.75 328.129 341.136 327.798 341.468 C 327.456 341.811 327.069 342.071 326.63 342.25 C 326.19 342.439 325.721 342.529 325.245 342.529 C 324.768 342.529 324.31 342.439 323.871 342.25 C 323.429 342.071 323.033 341.811 322.702 341.468 C 322.36 341.136 322.1 340.75 321.919 340.299 C 321.731 339.859 321.642 339.401 321.642 338.925 C 321.642 338.449 321.731 337.989 321.919 337.54 C 322.1 337.101 322.36 336.715 322.702 336.371 C 323.033 336.04 323.429 335.78 323.871 335.591 C 324.31 335.41 324.768 335.32 325.245 335.32 C 325.721 335.32 326.19 335.41 326.63 335.591 C 327.069 335.78 327.456 336.04 327.798 336.371 C 328.129 336.715 328.392 337.101 328.58 337.54 C 328.761 337.989 328.85 338.449 328.85 338.925 Z M 328.85 338.925" fill-opacity="1" fill-rule="nonzero" style=""></path><path fill="#ed3237" d="M 319.798 404.633 C 319.798 405.119 319.709 405.577 319.52 406.019 C 319.34 406.458 319.08 406.845 318.738 407.188 C 318.407 407.527 318.011 407.787 317.569 407.97 C 317.13 408.149 316.672 408.248 316.195 408.248 C 315.718 408.248 315.252 408.149 314.811 407.97 C 314.37 407.787 313.984 407.527 313.642 407.188 C 313.31 406.845 313.05 406.458 312.862 406.019 C 312.68 405.577 312.59 405.119 312.59 404.633 C 312.59 404.158 312.68 403.7 312.862 403.259 C 313.05 402.818 313.31 402.422 313.642 402.091 C 313.984 401.748 314.37 401.488 314.811 401.309 C 315.252 401.129 315.718 401.03 316.195 401.03 C 316.672 401.03 317.13 401.129 317.569 401.309 C 318.011 401.488 318.407 401.748 318.738 402.091 C 319.08 402.422 319.34 402.818 319.52 403.259 C 319.709 403.7 319.798 404.158 319.798 404.633 Z M 319.798 404.633" fill-opacity="1" fill-rule="nonzero" style=""></path><path fill="#ed3237" d="M 163.952 363.344 C 163.952 363.821 163.861 364.279 163.673 364.72 C 163.494 365.159 163.231 365.555 162.9 365.887 C 162.558 366.23 162.171 366.49 161.723 366.669 C 161.282 366.848 160.822 366.948 160.346 366.948 C 159.87 366.948 159.412 366.848 158.963 366.669 C 158.522 366.49 158.135 366.23 157.794 365.887 C 157.461 365.555 157.201 365.159 157.012 364.72 C 156.833 364.279 156.743 363.821 156.743 363.344 C 156.743 362.859 156.833 362.401 157.012 361.959 C 157.201 361.52 157.461 361.134 157.794 360.793 C 158.135 360.45 158.522 360.19 158.963 360.01 C 159.412 359.831 159.87 359.741 160.346 359.741 C 160.822 359.741 161.282 359.831 161.723 360.01 C 162.171 360.19 162.558 360.45 162.9 360.793 C 163.231 361.134 163.494 361.52 163.673 361.959 C 163.861 362.401 163.952 362.859 163.952 363.344 Z M 163.952 363.344" fill-opacity="1" fill-rule="nonzero" style=""></path><path fill="#ed3237" d="M 326.8 154.946 C 326.8 155.989 326.602 156.987 326.206 157.955 C 325.803 158.917 325.235 159.764 324.5 160.5 C 323.763 161.245 322.909 161.811 321.947 162.207 C 320.986 162.612 319.978 162.81 318.936 162.81 C 317.894 162.81 316.887 162.612 315.926 162.207 C 314.964 161.811 314.11 161.245 313.372 160.5 C 312.636 159.764 312.07 158.917 311.665 157.955 C 311.269 156.987 311.071 155.989 311.071 154.946 C 311.071 153.894 311.269 152.895 311.665 151.934 C 312.07 150.963 312.636 150.118 313.372 149.383 C 314.11 148.636 314.964 148.071 315.926 147.675 C 316.887 147.271 317.894 147.073 318.936 147.073 C 319.978 147.073 320.986 147.271 321.947 147.675 C 322.909 148.071 323.763 148.636 324.5 149.383 C 325.235 150.118 325.803 150.963 326.206 151.934 C 326.602 152.895 326.8 153.894 326.8 154.946 Z M 326.8 154.946" fill-opacity="1" fill-rule="nonzero" style=""></path><path fill="#ed3237" d="M 205.788 383.1 C 205.788 383.576 205.699 384.034 205.52 384.475 C 205.33 384.924 205.07 385.31 204.737 385.642 C 204.396 385.985 204.01 386.245 203.571 386.424 C 203.129 386.613 202.662 386.703 202.185 386.703 C 201.709 386.703 201.251 386.613 200.809 386.424 C 200.369 386.245 199.974 385.985 199.642 385.642 C 199.3 385.31 199.04 384.924 198.861 384.475 C 198.672 384.034 198.582 383.576 198.582 383.1 C 198.582 382.623 198.672 382.165 198.861 381.714 C 199.04 381.275 199.3 380.889 199.642 380.548 C 199.974 380.214 200.369 379.954 200.809 379.765 C 201.251 379.586 201.709 379.496 202.185 379.496 C 202.662 379.496 203.129 379.586 203.571 379.765 C 204.01 379.954 204.396 380.214 204.737 380.548 C 205.07 380.889 205.33 381.275 205.52 381.714 C 205.699 382.165 205.788 382.623 205.788 383.1 Z M 205.788 383.1" fill-opacity="1" fill-rule="nonzero" style=""></path><path fill="#ed3237" d="M 153.499 335.493 L 155.026 335.159 L 161.103 363.183 L 159.583 363.506 L 153.499 335.493 Z M 153.499 335.493" fill-opacity="1" fill-rule="nonzero" style=""></path><path fill="#ed3237" d="M 114.662 386.012 L 159.979 362.661 L 160.698 364.047 L 115.373 387.405 L 114.662 386.012 Z M 114.662 386.012" fill-opacity="1" fill-rule="nonzero" style=""></path><path fill="#ed3237" d="M 218.632 309.345 L 219.872 308.402 L 245.577 342.052 L 244.337 342.995 L 218.632 309.345 Z M 218.632 309.345" fill-opacity="1" fill-rule="nonzero" style=""></path><path fill="#ed3237" d="M 178.332 382.552 L 178.422 380.987 L 202.222 382.299 L 202.139 383.854 L 178.332 382.552 Z M 178.332 382.552" fill-opacity="1" fill-rule="nonzero" style=""></path><path fill="#ed3237" d="M 219.091 308.114 L 274.016 296.062 L 274.357 297.582 L 219.423 309.642 L 219.091 308.114 Z M 219.091 308.114" fill-opacity="1" fill-rule="nonzero" style=""></path><path fill="#ed3237" d="M 244.312 342.107 L 273.531 296.403 L 274.841 297.248 L 245.624 342.942 L 244.312 342.107 Z M 244.312 342.107" fill-opacity="1" fill-rule="nonzero" style=""></path><path fill="#ed3237" d="M 244.195 342.608 L 245.757 342.494 L 253.991 452.35 L 252.436 452.466 L 244.195 342.608 Z M 244.195 342.608" fill-opacity="1" fill-rule="nonzero" style=""></path><path fill="#ed3237" d="M 201.431 382.902 L 218.499 308.681 L 220.017 309.032 L 202.949 383.251 L 201.431 382.902 Z M 201.431 382.902" fill-opacity="1" fill-rule="nonzero" style=""></path><path fill="#ed3237" d="M 273.682 297.42 L 274.681 296.215 L 325.739 338.313 L 324.753 339.519 L 273.682 297.42 Z M 273.682 297.42" fill-opacity="1" fill-rule="nonzero" style=""></path><path fill="#ed3237" d="M 324.777 339.535 L 325.705 338.276 L 359.111 362.689 L 358.195 363.947 L 324.777 339.535 Z M 324.777 339.535" fill-opacity="1" fill-rule="nonzero" style=""></path><path fill="#ed3237" d="M 324.527 338.6 L 350.284 279.91 L 351.713 280.54 L 325.956 339.222 L 324.527 338.6 Z M 324.527 338.6" fill-opacity="1" fill-rule="nonzero" style=""></path><path fill="#ed3237" d="M 345.064 224.492 L 353.226 201.78 L 354.689 202.311 L 346.536 225.024 L 345.064 224.492 Z M 345.064 224.492" fill-opacity="1" fill-rule="nonzero" style=""></path><path fill="#ed3237" d="M 318.307 155.404 L 319.547 154.46 L 354.834 200.846 L 353.593 201.798 L 318.307 155.404 Z M 318.307 155.404" fill-opacity="1" fill-rule="nonzero" style=""></path><path fill="#ed3237" d="M 274.016 296.062 L 350.826 279.49 L 351.148 281.017 L 274.338 297.59 L 274.016 296.062 Z M 274.016 296.062" fill-opacity="1" fill-rule="nonzero" style=""></path><path fill="#ed3237" d="M 345.018 224.869 L 346.574 224.726 L 351.759 280.18 L 350.205 280.325 L 345.018 224.869 Z M 345.018 224.869" fill-opacity="1" fill-rule="nonzero" style=""></path><path fill="#ed3237" d="M 272.424 296.007 L 318.199 154.72 L 319.681 155.206 L 273.908 296.492 L 272.424 296.007 Z M 272.424 296.007" fill-opacity="1" fill-rule="nonzero" style=""></path><path fill="#ed3237" d="M 296.035 226.372 L 296.088 224.816 L 347.858 226.452 L 347.805 228.008 L 296.035 226.372 Z M 296.035 226.372" fill-opacity="1" fill-rule="nonzero" style=""></path><path fill="#ed3237" d="M 295.497 226.146 L 296.601 225.042 L 352.1 280.18 L 351.005 281.287 L 295.497 226.146 Z M 295.497 226.146" fill-opacity="1" fill-rule="nonzero" style=""></path><path fill="#ed3237" d="M 211.917 178.827 L 212.69 177.469 L 296.431 224.924 L 295.658 226.281 L 211.917 178.827 Z M 211.917 178.827" fill-opacity="1" fill-rule="nonzero" style=""></path><path fill="#ed3237" d="M 210.347 271.758 L 295.686 224.888 L 296.431 226.255 L 211.101 273.125 L 210.347 271.758 Z M 210.347 271.758" fill-opacity="1" fill-rule="nonzero" style=""></path><path fill="#ed3237" d="M 252.535 249.415 L 253.964 248.787 L 274.904 296.52 L 273.475 297.148 L 252.535 249.415 Z M 252.535 249.415" fill-opacity="1" fill-rule="nonzero" style=""></path><path fill="#ed3237" d="M 132.098 302.291 L 132.244 300.745 L 222.281 309.067 L 222.138 310.623 L 132.098 302.291 Z M 132.098 302.291" fill-opacity="1" fill-rule="nonzero" style=""></path><path fill="#ed3237" d="M 153.382 335.248 L 218.814 308.86 L 219.396 310.307 L 153.966 336.705 L 153.382 335.248 Z M 153.382 335.248" fill-opacity="1" fill-rule="nonzero" style=""></path><path fill="#ed3237" d="M 218.471 308.834 L 220.852 266.421 L 222.407 266.511 L 220.026 308.924 L 218.471 308.834 Z M 218.471 308.834" fill-opacity="1" fill-rule="nonzero" style=""></path><path fill="#ed3237" d="M 274.402 187.39 L 275.767 186.645 L 296.736 225.212 L 295.361 225.957 L 274.402 187.39 Z M 274.402 187.39" fill-opacity="1" fill-rule="nonzero" style=""></path><path fill="#ed3237" d="M 322.854 89.479 L 321.471 88.651 C 321.227 88.508 315.53 85.308 307.109 94.098 C 305.383 91.545 302.498 89.975 299.316 89.975 C 294.112 89.975 289.879 94.205 289.879 99.41 C 289.879 103.804 292.899 107.499 296.97 108.551 C 290.976 117.26 285.582 118.985 282.041 118.841 C 277.547 118.661 274.285 115.417 272.739 112.452 C 271.31 109.727 271.014 105.359 271.866 99.76 C 272.119 99.778 272.371 99.788 272.622 99.788 C 277.826 99.788 282.051 95.563 282.051 90.359 C 282.051 85.156 277.826 80.923 272.622 80.923 C 267.419 80.923 263.186 85.156 263.186 90.359 C 263.186 93.163 264.408 95.761 266.501 97.541 C 263.671 101.379 260.607 104.164 257.369 105.836 C 255.266 106.924 249.739 109.179 243.889 106.538 C 238.863 104.271 234.91 98.906 232.322 90.899 C 233.58 91.438 234.945 91.724 236.357 91.724 C 242.011 91.724 246.603 87.124 246.603 81.47 C 246.603 76.464 242.998 72.294 238.254 71.394 C 239.197 68.6 239.673 65.751 239.673 62.884 C 239.673 57.311 236.25 53.025 233.229 49.23 C 230.965 46.391 227.467 42.492 227.467 40.001 C 227.467 42.492 223.963 46.391 221.706 49.23 C 218.687 53.025 215.264 57.311 215.264 62.884 C 215.264 65.751 215.739 68.6 216.674 71.394 C 211.927 72.285 208.324 76.464 208.324 81.47 C 208.324 87.124 212.926 91.724 218.578 91.724 C 219.989 91.724 221.356 91.438 222.605 90.899 C 220.026 98.906 216.061 104.271 211.048 106.538 C 205.188 109.17 199.659 106.924 197.556 105.836 C 194.33 104.164 191.265 101.379 188.433 97.541 C 190.529 95.761 191.751 93.163 191.751 90.359 C 191.751 85.156 187.517 80.923 182.313 80.923 C 177.11 80.923 172.886 85.156 172.886 90.359 C 172.886 95.563 177.11 99.788 182.313 99.788 C 182.566 99.788 182.816 99.778 183.067 99.76 C 183.921 105.351 183.626 109.727 182.196 112.452 C 180.652 115.417 177.389 118.653 172.896 118.841 C 169.345 118.977 163.961 117.25 157.965 108.551 C 162.038 107.499 165.056 103.804 165.056 99.41 C 165.056 94.205 160.822 89.975 155.62 89.975 C 152.438 89.975 149.553 91.545 147.828 94.098 C 139.406 85.308 133.706 88.508 133.465 88.651 L 132.08 89.479 L 133.107 90.71 C 146.766 107.039 157.848 128.783 166.063 155.342 L 168.678 154.532 C 160.643 128.566 149.877 107.104 136.648 90.71 C 138.676 90.745 142.31 91.815 147.081 97.344 L 148.563 99.051 L 149.391 96.948 C 150.407 94.377 152.852 92.705 155.62 92.705 C 159.313 92.705 162.325 95.717 162.325 99.401 C 162.325 103.095 159.313 106.106 155.62 106.106 L 153.146 106.106 L 154.461 108.199 C 161.623 119.579 168.489 121.745 172.992 121.566 C 177.739 121.376 182.189 118.364 184.613 113.71 C 186.429 110.24 186.753 105.044 185.594 98.278 C 188.838 102.907 192.443 106.259 196.297 108.255 C 201.493 110.951 207.272 111.23 212.162 109.028 C 218.767 106.053 223.514 98.986 226.263 88.033 L 226.335 87.717 L 225.797 84.822 L 223.953 86.718 C 222.524 88.184 220.611 88.994 218.569 88.994 C 214.417 88.994 211.048 85.614 211.048 81.47 C 211.048 77.326 214.417 73.958 218.569 73.958 L 220.601 73.958 L 219.838 72.069 C 218.607 69.068 217.986 65.976 217.986 62.893 C 217.986 58.272 220.96 54.543 223.836 50.94 C 225.194 49.23 226.514 47.569 227.458 45.878 C 228.394 47.569 229.715 49.23 231.073 50.94 C 233.948 54.543 236.923 58.272 236.923 62.893 C 236.923 65.985 236.302 69.075 235.081 72.069 L 234.308 73.958 L 236.348 73.958 C 240.49 73.958 243.861 77.326 243.861 81.47 C 243.861 85.614 240.49 88.994 236.339 88.994 C 234.298 88.994 232.384 88.184 230.955 86.718 L 229.131 84.886 L 228.574 87.744 L 228.644 88.033 C 231.395 98.986 236.141 106.053 242.747 109.028 C 247.636 111.23 253.416 110.951 258.61 108.255 C 262.466 106.268 266.061 102.907 269.315 98.278 C 268.156 105.044 268.478 110.24 270.296 113.71 C 272.72 118.364 277.17 121.376 281.906 121.566 C 286.417 121.754 293.286 119.57 300.448 108.199 L 301.76 106.106 L 299.279 106.106 C 295.596 106.106 292.584 103.095 292.584 99.401 C 292.584 95.717 295.596 92.705 299.279 92.705 C 302.056 92.705 304.502 94.377 305.516 96.948 L 306.346 99.051 L 307.827 97.344 C 312.609 91.805 316.238 90.738 318.261 90.701 C 305.032 107.104 294.266 128.557 286.229 154.532 L 284.926 158.766 L 299.864 146.875 L 318.299 156.158 L 319.529 153.715 L 299.523 143.649 L 290.194 151.072 C 298.256 126.445 308.878 106.151 321.793 90.701 L 322.854 89.479 Z M 185.828 96.076 L 184.928 96.624 L 183.886 96.877 C 183.373 97.001 182.853 97.056 182.322 97.056 C 178.629 97.056 175.626 94.053 175.626 90.359 C 175.626 86.666 178.629 83.662 182.322 83.662 C 186.016 83.662 189.017 86.666 189.017 90.359 C 189.017 92.705 187.832 94.845 185.828 96.076 Z M 270.015 96.633 L 269.117 96.076 C 267.113 94.845 265.926 92.705 265.926 90.359 C 265.926 86.675 268.929 83.662 272.622 83.662 C 276.316 83.662 279.317 86.675 279.317 90.359 C 279.317 94.053 276.316 97.066 272.622 97.066 C 272.092 97.066 271.57 97.001 271.059 96.877 L 270.015 96.633 Z M 270.015 96.633" fill-opacity="1" fill-rule="nonzero" style=""></path><path fill="#ed3237" d="M 247.385 198.276 L 274.779 186.313 L 275.399 187.742 L 248.005 199.705 L 247.385 198.276 Z M 247.385 198.276" fill-opacity="1" fill-rule="nonzero" style=""></path><path fill="#ed3237" d="M 161.921 267.967 L 168.39 276.99 L 145.473 290.246 L 132.108 285.582 L 118.158 280.702 L 102.682 260.245 L 108.373 255.599 L 128.684 274.554 L 161.487 275.157 L 161.921 267.967 Z M 161.921 267.967" fill-opacity="1" fill-rule="nonzero" style=""></path><path fill="#ed3237" d="M 151.585 299.928 L 148.52 306.129 L 123.974 308.294 L 113.422 291.99 L 117.44 284.171 C 117.449 284.162 117.449 284.162 117.449 284.162 L 134.813 297.141 L 143.126 296.017 L 151.585 299.928 Z M 151.585 299.928" fill-opacity="1" fill-rule="nonzero" style=""></path><path d="M 145.473 290.246 L 161.487 275.157 L 159.96 272.182 L 132.504 263.544 L 149.319 260.678 L 149.319 258.421 L 122.481 252.373 L 148.492 247.358 L 148.492 239.286 L 156.815 251.771 L 133.608 252.643 L 156.815 256.948 L 160.33 263.409 L 140.699 264.469 L 161.921 267.967 L 168.39 276.99 L 145.473 290.246 Z M 145.473 290.246" fill-opacity="1" fill-rule="nonzero" style="fill: rgb(237, 50, 56);"></path><path d="M 143.126 306.605 L 123.974 308.294 L 113.422 291.99 L 117.449 284.162 L 128.684 301.626 L 143.126 306.605 Z M 143.126 306.605" fill-opacity="1" fill-rule="nonzero" style="fill: rgb(237, 50, 56);"></path><path d="M 143.126 199.686 L 144.349 210.959 L 126.482 240.814 L 95.724 241.479 L 140.396 206.013 L 140.396 197.259 L 184.928 159.709 L 143.126 199.686 Z M 143.126 199.686" fill-opacity="1" fill-rule="nonzero" style="fill: rgb(237, 50, 56);"></path><path d="M 259.815 139.756 L 244.257 160.85 L 245.865 179.752 L 227.477 162.891 L 260.443 132.637 L 274.932 148.087 L 259.815 139.756 Z M 259.815 139.756" fill-opacity="1" fill-rule="nonzero" style="fill: rgb(237, 50, 56);"></path><path fill="#ed3237" d="M 253.253 248.05 L 222.93 228.564 L 221.616 267.292 L 221.598 267.336 L 193.808 302.344 L 199.281 270.385 L 171.915 283.074 L 172.571 254.835 L 207.164 238.856 L 161.623 245.425 L 154.621 237.759 L 152.213 222.435 L 166.936 234.209 L 177.441 214.688 L 178.737 214.688 L 194.293 202.275 L 179.698 200.172 L 166.936 191.283 L 206.598 185.064 L 205.198 169.299 L 194.321 150.659 L 194.419 150.568 L 203.156 154.937 L 219.262 147.073 L 208.037 169.011 L 228.618 176.238 L 214.391 177.55 L 248.985 199.013 L 225.552 198.357 L 243.511 220.465 L 222.488 211.487 L 253.253 248.05 Z M 253.253 248.05" fill-opacity="1" fill-rule="nonzero" style=""></path><path d="M 222.93 228.564 L 215.972 266.421 L 193.808 302.344 L 199.281 270.385 L 171.915 283.074 L 172.571 254.835 L 181.351 268.74 L 203.147 253.153 L 207.343 271.839 L 222.93 228.564 Z M 222.93 228.564" fill-opacity="1" fill-rule="nonzero" style="fill: rgb(237, 50, 56);"></path><path d="M 178.737 214.688 L 194.293 202.275 L 168.776 198.607 L 154.272 213.349 L 166.936 191.283 L 206.598 199.219 L 178.737 214.688 Z M 178.737 214.688" fill-opacity="1" fill-rule="nonzero" style="fill: rgb(237, 50, 56);"></path><path d="M 322.603 186.583 C 322.603 186.995 322.451 187.356 322.155 187.652 C 321.857 187.95 321.506 188.093 321.084 188.093 C 320.671 188.093 320.311 187.95 320.015 187.652 C 319.718 187.356 319.576 186.995 319.576 186.583 C 319.576 186.159 319.718 185.81 320.015 185.513 C 320.311 185.216 320.671 185.064 321.084 185.064 C 321.506 185.064 321.857 185.216 322.155 185.513 C 322.451 185.81 322.603 186.159 322.603 186.583 Z M 322.603 186.583" fill-opacity="1" fill-rule="nonzero" style="fill: rgb(237, 50, 56);"></path><path d="M 404.293 213.528 C 404.293 214.246 404.157 214.929 403.888 215.595 C 403.61 216.251 403.223 216.835 402.72 217.339 C 402.208 217.842 401.633 218.229 400.969 218.508 C 400.31 218.777 399.621 218.912 398.91 218.919 C 398.189 218.912 397.508 218.777 396.849 218.508 C 396.185 218.229 395.601 217.842 395.099 217.339 C 394.594 216.835 394.208 216.251 393.93 215.595 C 393.661 214.929 393.525 214.246 393.525 213.528 C 393.525 212.817 393.661 212.125 393.93 211.469 C 394.208 210.804 394.594 210.229 395.099 209.716 C 395.601 209.215 396.185 208.828 396.849 208.559 C 397.508 208.278 398.189 208.144 398.91 208.144 C 399.621 208.144 400.31 208.278 400.969 208.559 C 401.633 208.828 402.208 209.215 402.72 209.716 C 403.223 210.229 403.61 210.804 403.888 211.469 C 404.157 212.125 404.293 212.817 404.293 213.528 Z M 404.293 213.528" fill-opacity="1" fill-rule="nonzero" style="fill: rgb(237, 50, 56);"></path><path d="M 204.019 129.834 C 204.019 130.543 203.883 131.226 203.614 131.892 C 203.335 132.546 202.949 133.131 202.445 133.636 C 201.934 134.139 201.359 134.535 200.694 134.805 C 200.036 135.082 199.346 135.218 198.635 135.218 C 197.917 135.218 197.234 135.082 196.576 134.805 C 195.91 134.535 195.328 134.139 194.825 133.636 C 194.321 133.131 193.934 132.546 193.656 131.892 C 193.386 131.226 193.25 130.543 193.25 129.834 C 193.25 129.114 193.386 128.43 193.656 127.766 C 193.934 127.11 194.321 126.526 194.825 126.022 C 195.328 125.52 195.91 125.124 196.576 124.856 C 197.234 124.577 197.917 124.441 198.635 124.441 C 199.346 124.441 200.036 124.577 200.694 124.856 C 201.359 125.124 201.934 125.52 202.445 126.022 C 202.949 126.526 203.335 127.11 203.614 127.766 C 203.883 128.43 204.019 129.114 204.019 129.834 Z M 204.019 129.834" fill-opacity="1" fill-rule="nonzero" style="fill: rgb(237, 50, 56);"></path><path d="M 416.787 240.088 C 416.787 240.474 416.713 240.842 416.561 241.2 C 416.416 241.55 416.203 241.866 415.931 242.144 C 415.661 242.414 415.349 242.62 414.988 242.774 C 414.638 242.917 414.261 242.989 413.883 242.989 C 413.497 242.989 413.12 242.917 412.767 242.774 C 412.409 242.62 412.092 242.414 411.824 242.144 C 411.555 241.866 411.338 241.55 411.195 241.2 C 411.051 240.842 410.97 240.474 410.97 240.088 C 410.97 239.701 411.051 239.332 411.195 238.971 C 411.338 238.621 411.555 238.306 411.824 238.037 C 412.092 237.759 412.409 237.552 412.767 237.399 C 413.12 237.254 413.497 237.184 413.883 237.184 C 414.261 237.184 414.638 237.254 414.988 237.399 C 415.349 237.552 415.661 237.759 415.931 238.037 C 416.203 238.306 416.416 238.621 416.561 238.971 C 416.713 239.332 416.787 239.701 416.787 240.088 Z M 416.787 240.088" fill-opacity="1" fill-rule="nonzero" style="fill: rgb(237, 50, 56);"></path><path d="M 233.284 139.514 C 233.284 139.901 233.201 140.269 233.058 140.627 C 232.913 140.977 232.7 141.292 232.43 141.571 C 232.158 141.841 231.846 142.047 231.485 142.201 C 231.135 142.344 230.758 142.416 230.371 142.416 C 229.994 142.416 229.615 142.344 229.266 142.201 C 228.905 142.047 228.592 141.841 228.321 141.571 C 228.052 141.292 227.835 140.977 227.692 140.627 C 227.541 140.269 227.467 139.901 227.467 139.514 C 227.467 139.128 227.541 138.759 227.692 138.398 C 227.835 138.048 228.052 137.733 228.321 137.463 C 228.592 137.186 228.905 136.979 229.266 136.836 C 229.615 136.681 229.994 136.611 230.371 136.611 C 230.758 136.611 231.135 136.681 231.485 136.836 C 231.846 136.979 232.158 137.186 232.43 137.463 C 232.7 137.733 232.913 138.048 233.058 138.398 C 233.201 138.759 233.284 139.128 233.284 139.514 Z M 233.284 139.514" fill-opacity="1" fill-rule="nonzero" style="fill: rgb(237, 50, 56);"></path><path d="M 294.336 336.686 C 294.336 337.082 294.266 337.469 294.112 337.837 C 293.959 338.196 293.744 338.521 293.465 338.808 C 293.177 339.086 292.852 339.303 292.494 339.454 C 292.126 339.609 291.74 339.68 291.344 339.68 C 290.948 339.68 290.561 339.609 290.194 339.454 C 289.834 339.303 289.5 339.086 289.223 338.808 C 288.944 338.521 288.727 338.196 288.576 337.837 C 288.421 337.469 288.35 337.082 288.35 336.686 C 288.35 336.291 288.421 335.904 288.576 335.536 C 288.727 335.177 288.944 334.844 289.223 334.565 C 289.5 334.286 289.834 334.071 290.194 333.919 C 290.561 333.766 290.948 333.693 291.344 333.693 C 291.74 333.693 292.126 333.766 292.494 333.919 C 292.852 334.071 293.177 334.286 293.465 334.565 C 293.744 334.844 293.959 335.177 294.112 335.536 C 294.266 335.904 294.336 336.291 294.336 336.686 Z M 294.336 336.686" fill-opacity="1" fill-rule="nonzero" style="fill: rgb(237, 50, 56);"></path><path d="M 319.943 312.744 C 319.943 313.164 319.789 313.536 319.483 313.839 C 319.18 314.145 318.809 314.299 318.388 314.299 C 317.956 314.299 317.588 314.145 317.281 313.839 C 316.978 313.536 316.823 313.164 316.823 312.744 C 316.823 312.311 316.978 311.943 317.281 311.637 C 317.588 311.334 317.956 311.179 318.388 311.179 C 318.809 311.179 319.18 311.334 319.483 311.637 C 319.789 311.943 319.943 312.311 319.943 312.744 Z M 319.943 312.744" fill-opacity="1" fill-rule="nonzero" style="fill: rgb(237, 50, 56);"></path><path d="M 385.59 346.663 C 385.59 347.167 385.49 347.661 385.292 348.129 C 385.094 348.596 384.826 349.017 384.466 349.379 C 384.106 349.737 383.684 350.006 383.217 350.204 C 382.75 350.402 382.264 350.501 381.751 350.501 C 381.238 350.501 380.753 350.402 380.286 350.204 C 379.809 350.006 379.398 349.737 379.036 349.379 C 378.678 349.017 378.399 348.596 378.21 348.129 C 378.012 347.661 377.914 347.167 377.914 346.663 C 377.914 346.15 378.012 345.664 378.21 345.197 C 378.399 344.721 378.678 344.309 379.036 343.948 C 379.398 343.589 379.809 343.311 380.286 343.121 C 380.753 342.925 381.238 342.825 381.751 342.825 C 382.264 342.825 382.75 342.925 383.217 343.121 C 383.684 343.311 384.106 343.589 384.466 343.948 C 384.826 344.309 385.094 344.721 385.292 345.197 C 385.49 345.664 385.59 346.15 385.59 346.663 Z M 385.59 346.663" fill-opacity="1" fill-rule="nonzero" style="fill: rgb(237, 50, 56);"></path><path d="M 353.665 412.686 C 353.665 413.227 353.476 413.685 353.09 414.071 C 352.713 414.449 352.255 414.637 351.713 414.637 C 351.176 414.637 350.718 414.449 350.331 414.071 C 349.953 413.685 349.764 413.227 349.764 412.686 C 349.764 412.148 349.953 411.69 350.331 411.313 C 350.718 410.926 351.176 410.738 351.713 410.738 C 352.255 410.738 352.713 410.926 353.09 411.313 C 353.476 411.69 353.665 412.148 353.665 412.686 Z M 353.665 412.686" fill-opacity="1" fill-rule="nonzero" style="fill: rgb(237, 50, 56);"></path><path d="M 311.915 257.208 C 311.915 257.603 311.844 257.981 311.693 258.34 C 311.538 258.708 311.324 259.023 311.044 259.301 C 310.765 259.58 310.452 259.796 310.085 259.95 C 309.723 260.093 309.345 260.174 308.95 260.174 C 308.554 260.174 308.176 260.093 307.818 259.95 C 307.449 259.796 307.134 259.58 306.856 259.301 C 306.578 259.023 306.361 258.708 306.21 258.34 C 306.065 257.981 305.984 257.603 305.984 257.208 C 305.984 256.812 306.065 256.435 306.21 256.076 C 306.361 255.708 306.578 255.393 306.856 255.114 C 307.134 254.835 307.449 254.62 307.818 254.467 C 308.176 254.313 308.554 254.241 308.95 254.241 C 309.345 254.241 309.723 254.313 310.085 254.467 C 310.452 254.62 310.765 254.835 311.044 255.114 C 311.324 255.393 311.538 255.708 311.693 256.076 C 311.844 256.435 311.915 256.812 311.915 257.208 Z M 311.915 257.208" fill-opacity="1" fill-rule="nonzero" style="fill: rgb(237, 50, 56);"></path><path d="M 263.814 225.246 C 263.814 225.868 263.597 226.39 263.167 226.82 C 262.726 227.259 262.206 227.476 261.593 227.476 C 260.975 227.476 260.452 227.259 260.022 226.82 C 259.581 226.39 259.366 225.868 259.366 225.246 C 259.366 224.637 259.581 224.115 260.022 223.675 C 260.452 223.242 260.975 223.029 261.593 223.029 C 262.206 223.029 262.726 223.242 263.167 223.675 C 263.597 224.115 263.814 224.637 263.814 225.246 Z M 263.814 225.246" fill-opacity="1" fill-rule="nonzero" style="fill: rgb(237, 50, 56);"></path><path d="M 261.593 180.542 C 261.593 180.921 261.523 181.289 261.37 181.638 C 261.225 182 261.018 182.303 260.748 182.575 C 260.48 182.844 260.165 183.051 259.815 183.202 C 259.465 183.348 259.095 183.419 258.717 183.419 C 258.331 183.419 257.963 183.348 257.613 183.202 C 257.26 183.051 256.948 182.844 256.678 182.575 C 256.408 182.303 256.203 182 256.057 181.638 C 255.915 181.289 255.833 180.921 255.833 180.542 C 255.833 180.156 255.915 179.798 256.057 179.437 C 256.203 179.087 256.408 178.781 256.678 178.502 C 256.948 178.233 257.26 178.025 257.613 177.884 C 257.963 177.738 258.331 177.667 258.717 177.667 C 259.095 177.667 259.465 177.738 259.815 177.884 C 260.165 178.025 260.48 178.233 260.748 178.502 C 261.018 178.781 261.225 179.087 261.37 179.437 C 261.523 179.798 261.593 180.156 261.593 180.542 Z M 261.593 180.542" fill-opacity="1" fill-rule="nonzero" style="fill: rgb(237, 50, 56);"></path><path fill="#3a7ab4" d="M 232.771 117.053 C 232.771 117.241 232.709 117.393 232.582 117.52 C 232.447 117.656 232.294 117.718 232.115 117.718 C 231.926 117.718 231.772 117.656 231.638 117.52 C 231.512 117.393 231.45 117.241 231.45 117.053 C 231.45 116.873 231.512 116.713 231.638 116.586 C 231.772 116.46 231.926 116.388 232.115 116.388 C 232.294 116.388 232.447 116.46 232.582 116.586 C 232.709 116.713 232.771 116.873 232.771 117.053 Z M 232.771 117.053" fill-opacity="1" fill-rule="nonzero" style=""></path><path d="M 178.601 416.83 C 178.601 417.442 178.394 417.953 177.964 418.385 C 177.532 418.807 177.019 419.022 176.418 419.022 C 175.806 419.022 175.292 418.807 174.862 418.385 C 174.439 417.953 174.225 417.442 174.225 416.83 C 174.225 416.228 174.439 415.708 174.862 415.284 C 175.292 414.854 175.806 414.637 176.418 414.637 C 177.019 414.637 177.532 414.854 177.964 415.284 C 178.394 415.708 178.601 416.228 178.601 416.83 Z M 178.601 416.83" fill-opacity="1" fill-rule="nonzero" style="fill: rgb(237, 50, 56);"></path><path d="M 244.015 402.864 C 244.015 403.359 243.916 403.826 243.727 404.275 C 243.548 404.733 243.276 405.129 242.926 405.471 C 242.586 405.821 242.191 406.081 241.73 406.269 C 241.282 406.458 240.814 406.556 240.32 406.556 C 239.834 406.556 239.367 406.458 238.91 406.269 C 238.461 406.081 238.065 405.821 237.713 405.471 C 237.372 405.129 237.104 404.733 236.914 404.275 C 236.725 403.826 236.636 403.359 236.636 402.864 C 236.636 402.378 236.725 401.911 236.914 401.453 C 237.104 401.002 237.372 400.607 237.713 400.257 C 238.065 399.916 238.461 399.645 238.91 399.456 C 239.367 399.267 239.834 399.178 240.32 399.178 C 240.814 399.178 241.282 399.267 241.73 399.456 C 242.191 399.645 242.586 399.916 242.926 400.257 C 243.276 400.607 243.548 401.002 243.727 401.453 C 243.916 401.911 244.015 402.378 244.015 402.864 Z M 244.015 402.864" fill-opacity="1" fill-rule="nonzero" style="fill: rgb(237, 50, 56);"></path><path d="M 259.373 362.707 C 259.373 363.282 259.168 363.777 258.763 364.179 C 258.35 364.594 257.854 364.792 257.279 364.792 C 256.704 364.792 256.21 364.594 255.807 364.179 C 255.392 363.777 255.194 363.282 255.194 362.707 C 255.194 362.132 255.392 361.637 255.807 361.223 C 256.21 360.817 256.704 360.614 257.279 360.614 C 257.854 360.614 258.35 360.817 258.763 361.223 C 259.168 361.637 259.373 362.132 259.373 362.707 Z M 259.373 362.707" fill-opacity="1" fill-rule="nonzero" style="fill: rgb(237, 50, 56);"></path><path d="M 198.635 365.995 C 198.635 366.579 198.427 367.084 198.014 367.497 C 197.602 367.91 197.098 368.117 196.514 368.117 C 195.929 368.117 195.425 367.91 195.013 367.497 C 194.6 367.084 194.392 366.579 194.392 365.995 C 194.392 365.41 194.6 364.909 195.013 364.495 C 195.425 364.081 195.929 363.873 196.514 363.873 C 197.098 363.873 197.602 364.081 198.014 364.495 C 198.427 364.909 198.635 365.41 198.635 365.995 Z M 198.635 365.995" fill-opacity="1" fill-rule="nonzero" style="fill: rgb(237, 50, 56);"></path><path d="M 251.124 292.584 C 251.124 293.23 251.007 293.851 250.754 294.454 C 250.503 295.046 250.154 295.578 249.694 296.034 C 249.236 296.492 248.706 296.854 248.113 297.096 C 247.509 297.346 246.891 297.473 246.235 297.473 C 245.586 297.473 244.968 297.346 244.364 297.096 C 243.771 296.854 243.242 296.492 242.784 296.034 C 242.324 295.578 241.974 295.046 241.723 294.454 C 241.47 293.851 241.353 293.23 241.353 292.584 C 241.353 291.937 241.47 291.307 241.723 290.706 C 241.974 290.112 242.324 289.58 242.784 289.123 C 243.242 288.666 243.771 288.316 244.364 288.063 C 244.968 287.812 245.586 287.695 246.235 287.695 C 246.891 287.695 247.509 287.812 248.113 288.063 C 248.706 288.316 249.236 288.666 249.694 289.123 C 250.154 289.58 250.503 290.112 250.754 290.706 C 251.007 291.307 251.124 291.937 251.124 292.584 Z M 251.124 292.584" fill-opacity="1" fill-rule="nonzero" style="fill: rgb(237, 50, 56);"></path><path d="M 132.108 285.582 L 118.158 280.702 L 102.682 260.245 L 108.373 255.599 L 121.772 279.165 L 132.108 285.582 Z M 132.108 285.582" fill-opacity="1" fill-rule="nonzero" style="fill: rgb(237, 50, 56);"></path><g fill="#011a4d" fill-opacity="1" transform="matrix(1, 0, 0, 1, 64.777924, 38.659748)"><g transform="translate(126.944917, 285.094728)"><g></g></g></g><g fill="#ed3237" fill-opacity="1" transform="matrix(1, 0, 0, 1, 64.777924, 38.659748)"><g transform="translate(185.136558, 302.095)"><g></g></g></g></svg>